<?xml version="1.0" encoding="UTF-8"?> <svg xmlns="http://www.w3.org/2000/svg" width="628" height="866" viewBox="0 0 628 866" fill="none"><path fill-rule="evenodd" clip-rule="evenodd" d="M313.651 379.654L327.421 421.374H282.711L297.151 377.194C300.185 367.78 302.56 358.167 304.261 348.424C306.328 356.577 309.458 366.987 313.651 379.654Z" fill="#F40E0E"></path><path fill-rule="evenodd" clip-rule="evenodd" d="M306.4 280.694C236.98 280.694 180.4 337.304 180.4 406.694C180.4 476.084 237.01 532.694 306.4 532.694C375.79 532.694 432.4 476.084 432.4 406.694C432.4 337.304 375.81 280.694 306.4 280.694ZM348.2 483.224L332.82 437.604H277.67L263.15 483.224H244.62L295.26 332.604H314.15L368.15 483.224H348.2Z" fill="#F40E0E"></path><path fill-rule="evenodd" clip-rule="evenodd" d="M584.56 111.534C586.56 109.154 587.36 108.994 591.4 108.134C594.88 108.754 615.4 100.544 619.62 98.3038L604.15 86.4638C601.37 84.3838 599.15 82.4638 596.72 80.6538C593.88 78.6038 591.46 77.1838 588.39 74.8638L492.63 3.92382C489.69 1.69382 488.15 -0.686178 484.63 0.183822C482.865 0.763045 481.129 1.43055 479.43 2.18382L454.15 11.3238C447 13.8138 440.9 15.6938 433.89 18.4038L331.15 55.1338C338.03 61.8638 378.69 92.6038 381.74 96.2838C383.55 98.4838 382.74 98.9938 381.82 104.904C381.2 108.904 381.01 111.164 380.41 114.994C379.31 122.074 376.52 123.054 385.69 129.374C389.09 131.714 396.88 135.074 401.37 136.624C435.55 148.484 504.31 160.324 541.11 153.954C550.88 152.264 553.63 150.594 554.41 144.314C555.24 137.664 555.9 130.594 556.96 123.054C560.63 122.694 581.27 113.054 584.56 111.534Z" fill="#F40E0E"></path><path fill-rule="evenodd" clip-rule="evenodd" d="M388.95 122.324C390.26 126.994 397.29 128.854 402.83 130.774C421.33 137.204 440.43 140.614 460.09 144.024C477.2 147.024 531.93 154.284 544.55 146.114C543.55 140.854 538 139.464 530.85 136.854C524.794 134.738 518.632 132.935 512.39 131.454C490.09 125.974 398.58 109.064 388.95 122.324Z" fill="#140B0B"></path><path fill-rule="evenodd" clip-rule="evenodd" d="M387.44 81.1336C401.6 73.8536 412.07 69.8336 430.83 69.1336C447.959 68.6303 465.096 69.8228 481.99 72.6936C505.42 76.5036 523.99 82.2536 543.1 93.6936C552.38 99.2136 551.48 100.404 558.02 106.284C559.52 98.3536 555.34 95.1736 547.68 89.0936C528.92 74.2036 507.23 68.5236 482.68 64.0936C455.57 59.1636 418.51 57.2436 393.6 71.7136C388.63 74.5736 388.15 74.1936 387.44 81.1336Z" fill="#140B0B"></path><path fill-rule="evenodd" clip-rule="evenodd" d="M568.47 190.034C589.13 176.194 582.19 204.814 588.02 163.724C588.2 162.454 589.42 155.984 589.4 155.374C589.27 152.034 588.16 153.804 583.49 153.904C577.63 154.024 579.37 152.504 574.64 152.104C574.64 163.524 568.47 177.344 568.47 190.034Z" fill="#F40E0E"></path><path fill-rule="evenodd" clip-rule="evenodd" d="M584.56 111.534L580.95 134.604C580.3 137.604 581.21 135.734 578.35 137.294C569.89 144.084 579.67 154.384 587.49 150.014C592.49 147.234 592.65 138.624 586.99 137.114L591.4 108.114C587.36 108.994 586.61 109.134 584.56 111.534Z" fill="#F40E0E"></path><path fill-rule="evenodd" clip-rule="evenodd" d="M498.71 155.064L495.77 148.594L485.5 125.934L482.43 125.384L479.93 124.944L479.4 124.854L477 124.434L474.77 124.064C473.59 123.864 472.41 123.664 471.24 123.484L469.45 123.194C467.55 122.88 465.66 122.584 463.78 122.304L458.53 121.534L452.99 120.764L447.46 120.054L445.62 119.824L443.74 119.594C441.85 119.364 439.94 119.154 438 118.934L418 135.344L412.34 139.984C377.2 168.777 342.07 197.57 306.95 226.364L142.55 93.6636L0 406.664L142.47 720.944L305.86 586.944L470.25 719.774L612.79 406.714L498.71 155.064ZM458.71 675.934L305.82 549.934L152.47 676.234L30.9601 406.714L154.04 137.494L306.89 263.494L446.89 148.194L453.37 142.864L460.25 137.194L463.63 144.614L466.81 151.614L583.03 406.744L458.71 675.934Z" fill="#F40E0E"></path><path d="M118.431 760.844V792.034H124.731V760.844H118.431Z" fill="#F40E0E"></path><path d="M128.49 760.844V766.134H137.75V792.034H144.05V766.134H153.28V760.854L128.49 760.844Z" fill="#F40E0E"></path><path d="M154.221 777.734V783.734H165.961V777.734H154.221Z" fill="#F40E0E"></path><path d="M194.07 778.293C192.96 776.895 191.421 775.901 189.69 775.464C191.004 774.88 192.116 773.924 192.89 772.714C193.668 771.525 194.078 770.134 194.07 768.714C194.075 767.429 193.73 766.166 193.07 765.064C192.488 764.029 191.677 763.141 190.7 762.467C189.722 761.793 188.604 761.351 187.43 761.173C185.598 760.927 183.749 760.823 181.9 760.863H169.44V792.034H180.05C184.05 792.034 186.584 791.964 187.65 791.824C189.16 791.698 190.613 791.188 191.87 790.344C193.032 789.524 193.962 788.418 194.57 787.134C195.221 785.85 195.563 784.432 195.57 782.993C195.614 781.303 195.085 779.647 194.07 778.293ZM175.77 766.034H179.39C182.39 766.034 184.15 766.034 184.77 766.144C185.672 766.197 186.521 766.586 187.15 767.233C187.696 767.892 187.977 768.729 187.94 769.584C187.961 770.031 187.891 770.479 187.732 770.899C187.574 771.318 187.332 771.701 187.02 772.024C186.326 772.675 185.43 773.07 184.48 773.144C183.88 773.214 182.35 773.243 179.9 773.243H175.77V766.034ZM188.21 785.344C187.613 786.01 186.804 786.451 185.92 786.594C184.487 786.762 183.043 786.825 181.6 786.784H175.77V778.444H180.86C182.732 778.345 184.608 778.492 186.44 778.884C187.245 779.129 187.947 779.632 188.44 780.314C188.913 781.015 189.151 781.848 189.12 782.694C189.164 783.66 188.838 784.607 188.21 785.344Z" fill="#F40E0E"></path><path d="M200.881 769.444V792.034H206.881V769.444H200.881ZM200.881 760.844V766.374H206.881V760.844H200.881Z" fill="#F40E0E"></path><path d="M212.99 760.844V792.034H218.99V760.844H212.99Z" fill="#F40E0E"></path><path d="M239.841 760.844V772.074C239.052 771.094 238.055 770.303 236.922 769.759C235.789 769.214 234.548 768.928 233.291 768.924C232.002 768.894 230.723 769.148 229.543 769.666C228.363 770.184 227.311 770.955 226.461 771.924C224.661 773.924 223.761 776.837 223.761 780.664C223.761 784.49 224.684 787.407 226.531 789.414C227.34 790.399 228.358 791.193 229.512 791.736C230.666 792.279 231.926 792.558 233.201 792.554C234.524 792.545 235.826 792.223 237.001 791.614C238.311 790.933 239.434 789.941 240.271 788.724V792.044H245.821V760.844H239.841ZM238.421 786.064C238.012 786.609 237.483 787.053 236.874 787.358C236.264 787.664 235.592 787.823 234.911 787.824C234.095 787.829 233.294 787.614 232.59 787.203C231.886 786.791 231.306 786.197 230.911 785.484C230.129 783.853 229.784 782.048 229.911 780.244C229.778 778.443 230.288 776.654 231.351 775.194C231.784 774.663 232.33 774.234 232.949 773.94C233.568 773.647 234.245 773.494 234.931 773.494C235.616 773.494 236.293 773.647 236.912 773.94C237.531 774.234 238.077 774.663 238.511 775.194C239.451 776.334 239.911 778.194 239.911 780.804C240.038 782.677 239.511 784.536 238.421 786.064Z" fill="#F40E0E"></path><path d="M266.15 769.444V778.974C266.261 781.014 266.113 783.061 265.71 785.064C265.393 785.919 264.812 786.651 264.05 787.154C263.243 787.712 262.282 788.006 261.3 787.994C260.515 788.025 259.74 787.804 259.09 787.364C258.511 786.948 258.088 786.349 257.89 785.664C257.582 783.733 257.471 781.777 257.56 779.824V769.444H251.56V783.734C251.488 785.438 251.764 787.139 252.37 788.734C252.905 789.931 253.823 790.917 254.98 791.534C256.235 792.214 257.643 792.558 259.07 792.534C260.544 792.553 262 792.209 263.31 791.534C264.62 790.878 265.739 789.897 266.56 788.684V792.064H272.15V769.444H266.15Z" fill="#F40E0E"></path><path d="M298.56 773.974C298.355 773.063 297.956 772.207 297.39 771.464C296.736 770.652 295.881 770.025 294.91 769.644C293.767 769.154 292.534 768.908 291.29 768.924C289.832 768.912 288.394 769.255 287.098 769.922C285.802 770.589 284.687 771.561 283.85 772.754V769.444H278.29V792.034H284.29V781.804C284.207 780.061 284.361 778.315 284.75 776.614C285.042 775.691 285.637 774.895 286.44 774.354C287.259 773.786 288.234 773.489 289.23 773.504C289.966 773.482 290.69 773.692 291.3 774.104C291.887 774.51 292.326 775.096 292.55 775.774C292.885 777.327 293.013 778.918 292.93 780.504V792.034H298.93V778.034C298.956 776.671 298.832 775.31 298.56 773.974Z" fill="#F40E0E"></path><path d="M320.06 769.444V772.614C319.303 771.475 318.276 770.542 317.07 769.898C315.864 769.254 314.517 768.919 313.15 768.924C311.866 768.899 310.593 769.155 309.418 769.673C308.244 770.191 307.197 770.959 306.35 771.924C304.516 773.924 303.603 776.821 303.61 780.614C303.515 783.292 304.244 785.934 305.7 788.184C306.469 789.392 307.536 790.381 308.8 791.055C310.063 791.73 311.478 792.067 312.91 792.034C314.253 792.034 315.576 791.7 316.758 791.061C317.94 790.422 318.944 789.498 319.68 788.374V791.674C319.73 792.6 319.635 793.527 319.4 794.424C319.185 795.047 318.766 795.579 318.21 795.934C317.121 796.47 315.911 796.712 314.7 796.634C313.761 796.709 312.823 796.485 312.02 795.994C311.786 795.787 311.596 795.535 311.46 795.253C311.325 794.972 311.246 794.666 311.23 794.354L304.4 793.524C304.4 793.814 304.4 794.054 304.4 794.254C304.384 795.217 304.593 796.17 305.01 797.037C305.426 797.905 306.039 798.664 306.8 799.254C308.41 800.564 311.12 801.254 314.95 801.254C316.639 801.294 318.324 801.081 319.95 800.624C321.127 800.275 322.213 799.67 323.13 798.854C323.993 797.985 324.628 796.917 324.98 795.744C325.499 793.788 325.722 791.766 325.64 789.744V769.444H320.06ZM318.27 785.494C317.819 786.036 317.253 786.471 316.613 786.767C315.973 787.063 315.275 787.212 314.57 787.204C313.908 787.211 313.253 787.063 312.658 786.773C312.063 786.484 311.543 786.059 311.14 785.534C310.21 784.424 309.74 782.664 309.74 780.274C309.6 778.463 310.095 776.66 311.14 775.174C311.562 774.642 312.1 774.214 312.714 773.925C313.328 773.635 314.001 773.491 314.68 773.504C315.379 773.493 316.071 773.64 316.705 773.934C317.339 774.229 317.898 774.663 318.34 775.204C319.418 776.718 319.931 778.561 319.79 780.414C319.923 782.237 319.382 784.044 318.27 785.494Z" fill="#F40E0E"></path><path d="M348.701 780.524C347.441 779.477 345.217 778.591 342.031 777.864C338.851 777.144 336.981 776.584 336.451 776.184C336.27 776.067 336.121 775.907 336.017 775.719C335.912 775.53 335.855 775.319 335.851 775.104C335.851 774.86 335.914 774.619 336.033 774.406C336.152 774.193 336.323 774.013 336.531 773.884C337.577 773.364 338.745 773.136 339.911 773.224C340.922 773.166 341.928 773.41 342.801 773.924C343.48 774.407 343.965 775.116 344.171 775.924L349.811 774.874C349.354 773.057 348.247 771.471 346.701 770.414C345.201 769.407 342.904 768.901 339.811 768.894C336.564 768.894 334.167 769.561 332.621 770.894C331.887 771.489 331.297 772.243 330.895 773.098C330.493 773.954 330.29 774.889 330.301 775.834C330.268 776.842 330.498 777.841 330.968 778.733C331.438 779.626 332.131 780.38 332.981 780.924C334.267 781.804 337.324 782.774 342.151 783.834C342.868 783.944 343.552 784.214 344.151 784.624C344.435 784.93 344.586 785.337 344.571 785.754C344.581 786.063 344.515 786.369 344.379 786.646C344.243 786.923 344.041 787.163 343.791 787.344C342.744 787.983 341.524 788.28 340.301 788.194C339.138 788.265 337.985 787.948 337.021 787.294C336.201 786.627 335.65 785.686 335.471 784.644L329.471 785.564C329.973 787.635 331.228 789.446 332.991 790.644C335.179 792.001 337.73 792.653 340.301 792.514C343.687 792.514 346.247 791.771 347.981 790.284C348.787 789.647 349.439 788.835 349.887 787.911C350.336 786.986 350.569 785.972 350.571 784.944C350.61 784.114 350.463 783.286 350.139 782.521C349.816 781.756 349.324 781.073 348.701 780.524Z" fill="#F40E0E"></path><path d="M364.321 786.784C363.921 786.784 362.901 786.834 361.241 786.934L364.241 783.634L372.881 773.634V769.404H354.191V774.404H362.191C363.331 774.404 364.191 774.404 364.941 774.324C364.274 774.99 363.244 776.117 361.851 777.704L353.391 787.424V792.084H373.561V786.834L364.321 786.784Z" fill="#F40E0E"></path><path d="M389.24 787.314C388.566 787.834 387.731 788.102 386.88 788.074C386.234 788.089 385.591 787.965 384.996 787.712C384.401 787.458 383.868 787.081 383.43 786.604C382.448 785.453 381.931 783.977 381.98 782.464H396.98C397.074 777.884 396.144 774.481 394.19 772.254C393.192 771.135 391.955 770.254 390.57 769.678C389.185 769.101 387.688 768.844 386.19 768.924C384.795 768.889 383.409 769.156 382.126 769.706C380.844 770.257 379.696 771.078 378.76 772.114C376.8 774.234 375.82 777.164 375.82 780.904C375.712 783.674 376.497 786.405 378.06 788.694C379.947 791.267 382.854 792.551 386.78 792.544C388.977 792.624 391.145 792.027 392.99 790.834C394.709 789.606 395.98 787.85 396.61 785.834L390.61 784.834C390.418 785.781 389.94 786.647 389.24 787.314ZM383.34 774.934C383.739 774.491 384.226 774.134 384.769 773.888C385.313 773.642 385.901 773.511 386.498 773.503C387.094 773.496 387.686 773.612 388.236 773.844C388.785 774.077 389.28 774.421 389.69 774.854C390.611 775.959 391.088 777.367 391.03 778.804H382.09C381.996 777.402 382.444 776.016 383.34 774.934Z" fill="#F40E0E"></path><path d="M422.06 773.974C421.855 773.063 421.456 772.207 420.89 771.464C420.236 770.652 419.381 770.025 418.41 769.644C417.267 769.154 416.034 768.908 414.79 768.924C413.332 768.912 411.894 769.255 410.598 769.922C409.302 770.589 408.187 771.561 407.35 772.754V769.444H401.79V792.034H407.79V781.804C407.707 780.061 407.861 778.315 408.25 776.614C408.542 775.691 409.137 774.895 409.94 774.354C410.759 773.786 411.734 773.489 412.73 773.504C413.466 773.482 414.19 773.692 414.8 774.104C415.387 774.51 415.826 775.096 416.05 775.774C416.385 777.327 416.513 778.918 416.43 780.504V792.034H422.43V778.034C422.456 776.671 422.332 775.31 422.06 773.974Z" fill="#F40E0E"></path><path d="M438.801 787.014C438.033 787.332 437.219 787.528 436.391 787.594C436.034 787.603 435.684 787.497 435.391 787.294C435.126 787.114 434.938 786.844 434.86 786.534C434.742 785.465 434.702 784.389 434.74 783.314V774.204H438.831V769.444H434.74V761.444L428.74 764.934V769.424H426V774.184H428.74V784.034C428.7 785.443 428.764 786.854 428.931 788.254C429.036 789.083 429.323 789.878 429.771 790.584C430.263 791.22 430.925 791.706 431.681 791.984C432.605 792.356 433.594 792.54 434.59 792.524C436.211 792.554 437.821 792.251 439.321 791.634L438.801 787.014Z" fill="#F40E0E"></path><path d="M453.41 768.924C452.498 768.914 451.602 769.167 450.83 769.654C449.775 770.464 448.899 771.486 448.26 772.654V769.444H442.71V792.034H448.71V785.034C448.608 782.5 448.775 779.962 449.21 777.464C449.397 776.508 449.875 775.635 450.58 774.964C451.189 774.494 451.942 774.25 452.71 774.274C453.725 774.325 454.702 774.673 455.52 775.274L457.37 770.054C456.18 769.319 454.809 768.928 453.41 768.924Z" fill="#F40E0E"></path><path d="M474.37 769.444V778.974C474.476 781.014 474.328 783.06 473.93 785.064C473.61 785.917 473.029 786.648 472.27 787.154C471.463 787.712 470.502 788.006 469.52 787.994C468.735 788.025 467.961 787.804 467.31 787.364C466.731 786.948 466.308 786.349 466.11 785.664C465.802 783.733 465.692 781.777 465.78 779.824V769.444H459.78V783.734C459.708 785.438 459.984 787.139 460.59 788.734C461.125 789.931 462.043 790.917 463.2 791.534C464.455 792.214 465.864 792.558 467.29 792.534C468.764 792.553 470.22 792.209 471.53 791.534C472.838 790.875 473.957 789.894 474.78 788.684V792.064H480.33V769.444H474.37Z" fill="#F40E0E"></path><path d="M518.72 772.904C518.211 771.649 517.305 770.595 516.14 769.904C514.853 769.196 513.398 768.851 511.93 768.904C510.649 768.898 509.385 769.207 508.25 769.804C507.006 770.478 505.911 771.396 505.03 772.504C504.428 771.379 503.524 770.444 502.42 769.804C501.263 769.182 499.964 768.872 498.65 768.904C497.285 768.924 495.943 769.259 494.729 769.884C493.514 770.508 492.461 771.405 491.65 772.504V769.424H486.15V792.034H492.15V781.034C492.081 779.465 492.243 777.895 492.63 776.374C492.9 775.5 493.457 774.742 494.21 774.224C494.947 773.733 495.815 773.475 496.7 773.484C497.341 773.451 497.976 773.615 498.52 773.954C499.004 774.301 499.356 774.801 499.52 775.374C499.802 776.775 499.91 778.206 499.84 779.634V792.034H505.84V781.184C505.773 779.611 505.938 778.038 506.33 776.514C506.592 775.609 507.152 774.819 507.92 774.274C508.606 773.773 509.432 773.504 510.28 773.504C510.783 773.469 511.285 773.57 511.735 773.795C512.185 774.02 512.567 774.361 512.84 774.784C513.25 775.434 513.45 776.884 513.45 779.124V792.034H519.45V777.584C519.496 775.992 519.248 774.406 518.72 772.904Z" fill="#F40E0E"></path><path d="M56.9204 823.594L50.6204 852.284L43.4204 823.594H33.5504L26.0504 851.804L19.8503 823.594H11.3604L21.1704 864.664H30.1704L38.3304 833.954L46.5104 864.664H55.3104L65.3104 823.594H56.9204Z" fill="#F40E0E"></path><path d="M86.9304 823.594H78.1504L62.1504 864.664H70.9504L74.3403 855.334H90.7604L94.3503 864.664H103.35L86.9304 823.594ZM76.9304 848.414L82.4504 833.134L88.1104 848.374L76.9304 848.414Z" fill="#F40E0E"></path><path d="M134.9 823.594L127.53 851.594L120.08 823.594H107.67V864.664H115.37V832.334L123.5 864.664H131.5L139.66 832.334V864.664H147.36V823.594H134.9Z" fill="#F40E0E"></path><path d="M188.291 828.524C184.657 824.764 179.814 822.887 173.761 822.894C170.732 822.836 167.723 823.386 164.911 824.514C162.907 825.373 161.1 826.632 159.601 828.214C158.002 829.85 156.705 831.756 155.771 833.844C154.428 837.191 153.791 840.779 153.901 844.384C153.901 850.91 155.704 856.041 159.311 859.774C162.918 863.507 167.774 865.37 173.881 865.364C179.881 865.364 184.698 863.494 188.331 859.754C191.964 856.014 193.767 850.824 193.741 844.184C193.741 837.484 191.924 832.264 188.291 828.524ZM181.991 854.704C180.953 855.834 179.692 856.736 178.287 857.353C176.883 857.97 175.365 858.288 173.831 858.288C172.297 858.288 170.779 857.97 169.374 857.353C167.97 856.736 166.709 855.834 165.671 854.704C163.517 852.304 162.441 848.78 162.441 844.134C162.441 839.487 163.488 835.951 165.581 833.524C166.616 832.365 167.894 831.449 169.323 830.841C170.752 830.233 172.298 829.947 173.851 830.004C175.393 829.941 176.93 830.22 178.351 830.822C179.772 831.424 181.043 832.333 182.071 833.484C184.144 835.804 185.177 839.314 185.171 844.014C185.164 848.714 184.104 852.277 181.991 854.704Z" fill="#F40E0E"></path><path d="M226.5 849.564C226.079 852.071 224.883 854.382 223.08 856.174C221.515 857.564 219.483 858.314 217.39 858.274C216.004 858.314 214.627 858.038 213.364 857.466C212.1 856.895 210.984 856.042 210.1 854.974C208.24 852.764 207.3 849.074 207.3 843.874C207.3 838.981 208.25 835.441 210.15 833.254C211.06 832.186 212.198 831.337 213.481 830.77C214.764 830.202 216.158 829.93 217.56 829.974C219.591 829.896 221.582 830.549 223.171 831.816C224.761 833.082 225.843 834.877 226.22 836.874L234.43 834.874C233.736 832.017 232.281 829.401 230.22 827.304C227.08 824.331 223 822.847 217.98 822.854C212.233 822.854 207.59 824.744 204.05 828.524C200.51 832.304 198.747 837.614 198.76 844.454C198.76 850.914 200.513 856.007 204.02 859.734C207.193 862.869 211.35 864.813 215.79 865.237C220.23 865.662 224.681 864.541 228.39 862.064C231.257 859.884 233.307 856.551 234.54 852.064L226.5 849.564Z" fill="#F40E0E"></path><path d="M274.37 828.524C270.73 824.764 265.887 822.887 259.84 822.894C256.812 822.834 253.802 823.385 250.99 824.513C248.985 825.369 247.178 826.629 245.681 828.214C244.078 829.847 242.781 831.753 241.85 833.844C240.504 837.19 239.864 840.778 239.97 844.383C239.97 850.91 241.774 856.04 245.38 859.774C248.987 863.507 253.844 865.37 259.951 865.363C265.951 865.363 270.77 863.493 274.41 859.753C278.05 856.013 279.854 850.823 279.821 844.183C279.821 837.483 278.004 832.264 274.37 828.524ZM268.061 854.703C267.023 855.833 265.761 856.735 264.357 857.352C262.952 857.969 261.435 858.288 259.9 858.288C258.366 858.288 256.849 857.969 255.444 857.352C254.04 856.735 252.778 855.833 251.74 854.703C249.594 852.303 248.52 848.78 248.52 844.133C248.52 839.487 249.567 835.95 251.66 833.524C252.729 832.416 254.01 831.536 255.427 830.934C256.843 830.333 258.367 830.023 259.905 830.023C261.444 830.023 262.968 830.333 264.384 830.934C265.801 831.536 267.082 832.416 268.15 833.524C270.21 835.844 271.24 839.353 271.24 844.053C271.24 848.753 270.181 852.303 268.061 854.703Z" fill="#F40E0E"></path><path d="M311.26 823.594V851.024L294.44 823.594H286.37V864.664H294.08V837.884L310.64 864.664H318.96V823.594H311.26Z" fill="#F40E0E"></path><path d="M362.151 823.594H353.381L337.381 864.664H346.181L349.571 855.334H365.991L369.571 864.664H378.571L362.151 823.594ZM352.151 848.414L357.701 833.174L363.351 848.414H352.151Z" fill="#F40E0E"></path><path d="M409.27 849.564C408.849 852.071 407.653 854.382 405.85 856.174C404.285 857.564 402.254 858.314 400.16 858.274C398.776 858.316 397.399 858.04 396.138 857.468C394.876 856.896 393.762 856.043 392.88 854.974C391.01 852.764 390.07 849.074 390.07 843.874C390.07 838.981 391.02 835.441 392.92 833.254C393.83 832.186 394.969 831.337 396.252 830.77C397.534 830.202 398.928 829.93 400.33 829.974C402.361 829.896 404.353 830.549 405.942 831.815C407.531 833.082 408.613 834.877 408.99 836.874L417.2 834.874C416.507 832.017 415.052 829.401 412.99 827.304C409.86 824.304 405.77 822.854 400.75 822.854C395.004 822.854 390.36 824.744 386.82 828.524C383.28 832.304 381.517 837.614 381.53 844.454C381.53 850.914 383.287 856.007 386.8 859.734C389.962 862.876 394.112 864.831 398.548 865.268C402.984 865.706 407.436 864.599 411.15 862.134C414.024 859.954 416.074 856.621 417.3 852.134L409.27 849.564Z" fill="#F40E0E"></path><path d="M445.021 823.594H436.25L420.25 864.664H429.051L432.441 855.334H448.86L452.451 864.664H461.451L445.021 823.594ZM435.021 848.414L440.571 833.174L446.23 848.414H435.021Z" fill="#F40E0E"></path><path d="M498.93 834.814C498.121 832.336 496.784 830.064 495.01 828.154C493.32 826.36 491.179 825.055 488.81 824.374C486.253 823.769 483.627 823.507 481 823.594H465.84V864.664H481.45C483.927 864.738 486.4 864.445 488.79 863.794C490.959 863.172 492.952 862.052 494.61 860.524C496.635 858.489 498.144 856 499.01 853.264C499.907 850.439 500.333 847.487 500.27 844.524C500.355 841.236 499.903 837.956 498.93 834.814ZM490.86 851.684C490.508 853.187 489.759 854.569 488.69 855.684C487.732 856.521 486.581 857.109 485.34 857.394C483.693 857.708 482.016 857.838 480.34 857.784H474.15V830.534H477.88C480.158 830.46 482.437 830.594 484.69 830.934C486.125 831.208 487.454 831.877 488.53 832.864C489.637 833.979 490.445 835.355 490.88 836.864C491.526 839.244 491.809 841.709 491.72 844.174C491.789 846.705 491.5 849.234 490.86 851.684Z" fill="#F40E0E"></path><path d="M515.6 857.744V846.564H536.22V839.644H515.6V830.534H537.76V823.594H507.311V864.664H538.551V857.744H515.6Z" fill="#F40E0E"></path><path d="M572.71 823.594L565.34 851.594L557.88 823.594H545.47V864.664H553.15V832.334L561.27 864.664H569.27L577.42 832.334V864.664H585.15V823.594H572.71Z" fill="#F40E0E"></path><path d="M617.98 823.594L608.51 839.844L598.85 823.594H589.15L604.15 847.374V864.664H612.42V847.434L627.52 823.594H617.98Z" fill="#F40E0E"></path></svg> 